<svg xmlns="http://www.w3.org/2000/svg" style="isolation:isolate" width="800" height="800"><defs><clipPath id="a"><path d="M0 0h800v800H0z"/></clipPath></defs><g clip-path="url(#a)"><path d="M787.59 800H12.41C5.556 800 0 793.332 0 785.108V14.892C0 6.667 5.556 0 12.41 0h775.18C794.444 0 800 6.667 800 14.892v770.216c0 8.224-5.556 14.892-12.41 14.892z" fill="#25D366"/><path d="M508.558 450.429c-5.888-2.946-34.835-17.189-40.233-19.156-5.396-1.965-9.322-2.945-13.247 2.947-3.925 5.894-15.209 19.157-18.644 23.087-3.434 3.929-6.869 4.422-12.757 1.473-5.887-2.946-24.859-9.163-47.349-29.224-17.503-15.613-29.32-34.893-32.754-40.788-3.435-5.895-.367-9.081 2.581-12.016 2.649-2.639 5.889-6.878 8.832-10.316 2.944-3.437 3.925-5.895 5.888-9.822 1.962-3.931.982-7.368-.492-10.315-1.471-2.947-13.247-31.93-18.152-43.72-4.78-11.48-9.634-9.925-13.248-10.107-3.431-.171-7.361-.207-11.285-.207-3.925 0-10.304 1.474-15.702 7.367-5.396 5.895-20.607 20.14-20.607 49.12 0 28.983 21.098 56.979 24.042 60.909 2.945 3.931 41.518 63.401 100.584 88.905 14.047 6.068 25.015 9.69 33.566 12.403 14.104 4.482 26.94 3.849 37.085 2.333 11.312-1.689 34.836-14.242 39.743-27.995 4.906-13.757 4.906-25.545 3.433-28-1.471-2.456-5.396-3.93-11.284-6.878zM401.126 597.117h-.079c-35.145-.013-69.616-9.456-99.687-27.3l-7.152-4.245-74.128 19.445 19.786-72.274-4.656-7.411c-19.606-31.183-29.962-67.224-29.946-104.232.043-107.987 87.906-195.843 195.94-195.843 52.314.018 101.489 20.417 138.469 57.439 36.978 37.02 57.331 86.229 57.31 138.562-.044 107.996-87.905 195.859-195.857 195.859zm166.69-362.552c-44.489-44.541-103.655-69.081-166.692-69.107-129.884 0-235.595 105.703-235.647 235.627-.017 41.532 10.834 82.069 31.455 117.807L163.502 641l124.919-32.768c34.418 18.773 73.17 28.669 112.609 28.681h.097c129.871 0 235.59-105.713 235.643-235.639.024-62.965-24.464-122.169-68.954-166.709" fill-rule="evenodd" fill="#FFF"/></g></svg>